<mxfile host="app.diagrams.net" agent="Mozilla/5.0 (Windows NT 10.0; Win64; x64) AppleWebKit/537.36 (KHTML, like Gecko) Chrome/140.0.0.0 Safari/537.36 Edg/140.0.0.0" version="28.2.5">
  <diagram name="Stránka-1" id="lqdqIt7nhoTjh281uXJo">
    <mxGraphModel dx="1418" dy="786" grid="1" gridSize="10" guides="1" tooltips="1" connect="1" arrows="1" fold="1" page="1" pageScale="1" pageWidth="827" pageHeight="1169" math="0" shadow="0">
      <root>
        <mxCell id="0" />
        <mxCell id="1" parent="0" />
        <mxCell id="TnUfS4r-WgaliQLjJGHb-2" value="&lt;h1 style=&quot;margin-top: 0px;&quot;&gt;&lt;span style=&quot;background-color: transparent; color: light-dark(rgb(0, 0, 0), rgb(255, 255, 255));&quot;&gt;Šrumec&lt;/span&gt;&lt;br&gt;&lt;/h1&gt;" style="text;html=1;whiteSpace=wrap;overflow=hidden;rounded=0;" vertex="1" parent="1">
          <mxGeometry x="20" y="10" width="250" height="50" as="geometry" />
        </mxCell>
        <mxCell id="TnUfS4r-WgaliQLjJGHb-4" value="&lt;b&gt;Aplikace&lt;/b&gt;&lt;br&gt;Flutter" style="whiteSpace=wrap;html=1;aspect=fixed;" vertex="1" parent="1">
          <mxGeometry x="370" y="90" width="80" height="80" as="geometry" />
        </mxCell>
        <mxCell id="TnUfS4r-WgaliQLjJGHb-5" value="User&lt;br&gt;Backend" style="whiteSpace=wrap;html=1;aspect=fixed;" vertex="1" parent="1">
          <mxGeometry x="230" y="220" width="80" height="80" as="geometry" />
        </mxCell>
        <mxCell id="TnUfS4r-WgaliQLjJGHb-6" value="DB&lt;br&gt;Relační" style="whiteSpace=wrap;html=1;aspect=fixed;" vertex="1" parent="1">
          <mxGeometry x="230" y="340" width="80" height="80" as="geometry" />
        </mxCell>
        <mxCell id="TnUfS4r-WgaliQLjJGHb-7" value="&lt;div&gt;&lt;b&gt;Správce&lt;/b&gt;&lt;/div&gt;FE&amp;nbsp;" style="whiteSpace=wrap;html=1;aspect=fixed;" vertex="1" parent="1">
          <mxGeometry x="610" y="90" width="80" height="80" as="geometry" />
        </mxCell>
        <mxCell id="TnUfS4r-WgaliQLjJGHb-8" value="Auth" style="whiteSpace=wrap;html=1;aspect=fixed;" vertex="1" parent="1">
          <mxGeometry x="90" y="220" width="80" height="80" as="geometry" />
        </mxCell>
        <mxCell id="TnUfS4r-WgaliQLjJGHb-10" value="Event&lt;br&gt;BE" style="whiteSpace=wrap;html=1;aspect=fixed;" vertex="1" parent="1">
          <mxGeometry x="370" y="220" width="80" height="80" as="geometry" />
        </mxCell>
        <mxCell id="TnUfS4r-WgaliQLjJGHb-11" value="Event&lt;br&gt;DB&lt;br&gt;Redis" style="whiteSpace=wrap;html=1;aspect=fixed;" vertex="1" parent="1">
          <mxGeometry x="370" y="340" width="80" height="80" as="geometry" />
        </mxCell>
        <mxCell id="TnUfS4r-WgaliQLjJGHb-12" value="Event-control&lt;div&gt;DB&lt;br&gt;Redis&lt;/div&gt;" style="whiteSpace=wrap;html=1;aspect=fixed;" vertex="1" parent="1">
          <mxGeometry x="610" y="340" width="80" height="80" as="geometry" />
        </mxCell>
        <mxCell id="TnUfS4r-WgaliQLjJGHb-14" value="DB Auth" style="whiteSpace=wrap;html=1;aspect=fixed;" vertex="1" parent="1">
          <mxGeometry x="90" y="340" width="80" height="80" as="geometry" />
        </mxCell>
        <mxCell id="TnUfS4r-WgaliQLjJGHb-15" value="" style="endArrow=none;html=1;rounded=0;entryX=0.5;entryY=1;entryDx=0;entryDy=0;exitX=0.5;exitY=0;exitDx=0;exitDy=0;" edge="1" parent="1" source="TnUfS4r-WgaliQLjJGHb-5" target="TnUfS4r-WgaliQLjJGHb-4">
          <mxGeometry width="50" height="50" relative="1" as="geometry">
            <mxPoint x="330" y="210" as="sourcePoint" />
            <mxPoint x="380" y="160" as="targetPoint" />
          </mxGeometry>
        </mxCell>
        <mxCell id="TnUfS4r-WgaliQLjJGHb-16" value="" style="endArrow=none;html=1;rounded=0;entryX=0.5;entryY=0;entryDx=0;entryDy=0;exitX=0.5;exitY=1;exitDx=0;exitDy=0;" edge="1" parent="1" source="TnUfS4r-WgaliQLjJGHb-4" target="TnUfS4r-WgaliQLjJGHb-10">
          <mxGeometry width="50" height="50" relative="1" as="geometry">
            <mxPoint x="330" y="210" as="sourcePoint" />
            <mxPoint x="380" y="160" as="targetPoint" />
          </mxGeometry>
        </mxCell>
        <mxCell id="TnUfS4r-WgaliQLjJGHb-17" value="" style="endArrow=none;html=1;rounded=0;exitX=0.5;exitY=0;exitDx=0;exitDy=0;entryX=0.5;entryY=1;entryDx=0;entryDy=0;" edge="1" parent="1" source="TnUfS4r-WgaliQLjJGHb-6" target="TnUfS4r-WgaliQLjJGHb-5">
          <mxGeometry width="50" height="50" relative="1" as="geometry">
            <mxPoint x="300" y="220" as="sourcePoint" />
            <mxPoint x="350" y="170" as="targetPoint" />
          </mxGeometry>
        </mxCell>
        <mxCell id="TnUfS4r-WgaliQLjJGHb-18" value="" style="endArrow=none;html=1;rounded=0;entryX=0.5;entryY=0;entryDx=0;entryDy=0;exitX=0.5;exitY=1;exitDx=0;exitDy=0;" edge="1" parent="1" source="TnUfS4r-WgaliQLjJGHb-10" target="TnUfS4r-WgaliQLjJGHb-11">
          <mxGeometry width="50" height="50" relative="1" as="geometry">
            <mxPoint x="300" y="220" as="sourcePoint" />
            <mxPoint x="350" y="170" as="targetPoint" />
          </mxGeometry>
        </mxCell>
        <mxCell id="TnUfS4r-WgaliQLjJGHb-19" value="" style="endArrow=none;html=1;rounded=0;entryX=0.5;entryY=0;entryDx=0;entryDy=0;exitX=0.5;exitY=1;exitDx=0;exitDy=0;" edge="1" parent="1" source="TnUfS4r-WgaliQLjJGHb-8" target="TnUfS4r-WgaliQLjJGHb-14">
          <mxGeometry width="50" height="50" relative="1" as="geometry">
            <mxPoint x="300" y="220" as="sourcePoint" />
            <mxPoint x="350" y="170" as="targetPoint" />
          </mxGeometry>
        </mxCell>
        <mxCell id="TnUfS4r-WgaliQLjJGHb-20" value="Admin&lt;br&gt;BE" style="whiteSpace=wrap;html=1;aspect=fixed;" vertex="1" parent="1">
          <mxGeometry x="610" y="220" width="80" height="80" as="geometry" />
        </mxCell>
        <mxCell id="TnUfS4r-WgaliQLjJGHb-21" value="" style="endArrow=none;html=1;rounded=0;entryX=0.5;entryY=1;entryDx=0;entryDy=0;" edge="1" parent="1" source="TnUfS4r-WgaliQLjJGHb-12" target="TnUfS4r-WgaliQLjJGHb-20">
          <mxGeometry width="50" height="50" relative="1" as="geometry">
            <mxPoint x="396" y="220" as="sourcePoint" />
            <mxPoint x="446" y="170" as="targetPoint" />
          </mxGeometry>
        </mxCell>
        <mxCell id="TnUfS4r-WgaliQLjJGHb-22" value="" style="endArrow=none;html=1;rounded=0;entryX=0.5;entryY=1;entryDx=0;entryDy=0;exitX=0.5;exitY=0;exitDx=0;exitDy=0;" edge="1" parent="1" source="TnUfS4r-WgaliQLjJGHb-20" target="TnUfS4r-WgaliQLjJGHb-7">
          <mxGeometry width="50" height="50" relative="1" as="geometry">
            <mxPoint x="426" y="210" as="sourcePoint" />
            <mxPoint x="476" y="160" as="targetPoint" />
          </mxGeometry>
        </mxCell>
        <mxCell id="TnUfS4r-WgaliQLjJGHb-24" value="Chat&lt;br&gt;BE" style="whiteSpace=wrap;html=1;aspect=fixed;" vertex="1" parent="1">
          <mxGeometry x="490" y="220" width="80" height="80" as="geometry" />
        </mxCell>
        <mxCell id="TnUfS4r-WgaliQLjJGHb-25" value="" style="endArrow=none;html=1;rounded=0;entryX=0.5;entryY=1;entryDx=0;entryDy=0;exitX=0.5;exitY=0;exitDx=0;exitDy=0;" edge="1" parent="1" source="TnUfS4r-WgaliQLjJGHb-24" target="TnUfS4r-WgaliQLjJGHb-4">
          <mxGeometry width="50" height="50" relative="1" as="geometry">
            <mxPoint x="330" y="210" as="sourcePoint" />
            <mxPoint x="380" y="160" as="targetPoint" />
          </mxGeometry>
        </mxCell>
        <mxCell id="TnUfS4r-WgaliQLjJGHb-26" value="Chat&lt;br&gt;DB" style="whiteSpace=wrap;html=1;aspect=fixed;" vertex="1" parent="1">
          <mxGeometry x="490" y="340" width="80" height="80" as="geometry" />
        </mxCell>
        <mxCell id="TnUfS4r-WgaliQLjJGHb-27" value="" style="endArrow=none;html=1;rounded=0;entryX=0.5;entryY=1;entryDx=0;entryDy=0;exitX=0.5;exitY=0;exitDx=0;exitDy=0;" edge="1" parent="1" source="TnUfS4r-WgaliQLjJGHb-26" target="TnUfS4r-WgaliQLjJGHb-24">
          <mxGeometry width="50" height="50" relative="1" as="geometry">
            <mxPoint x="330" y="210" as="sourcePoint" />
            <mxPoint x="380" y="160" as="targetPoint" />
          </mxGeometry>
        </mxCell>
      </root>
    </mxGraphModel>
  </diagram>
</mxfile>
